<?xml version="1.0" encoding="UTF-8" standalone="no"?>
<!DOCTYPE svg PUBLIC "-//W3C//DTD SVG 1.1//EN"
 "http://www.w3.org/Graphics/SVG/1.1/DTD/svg11.dtd">
<!-- Generated by graphviz version 10.0.1 (20240210.2158)
 -->
<!-- Title: G Pages: 1 -->
<svg width="747pt" height="188pt"
 viewBox="0.00 0.00 746.53 188.00" xmlns="http://www.w3.org/2000/svg" xmlns:xlink="http://www.w3.org/1999/xlink">
<g id="graph0" class="graph" transform="scale(1 1) rotate(0) translate(4 184)">
<title>G</title>
<polygon fill="white" stroke="none" points="-4,4 -4,-184 742.53,-184 742.53,4 -4,4"/>
<!-- Sunlight -->
<g id="node1" class="node">
<title>Sunlight</title>
<ellipse fill="none" stroke="black" cx="448.29" cy="-162" rx="42.14" ry="18"/>
<text text-anchor="middle" x="448.29" y="-156.95" font-family="Times,serif" font-size="14.00">Sunlight</text>
</g>
<!-- Plant Growth -->
<g id="node2" class="node">
<title>Plant Growth</title>
<ellipse fill="none" stroke="black" cx="359.29" cy="-90" rx="60.56" ry="18"/>
<text text-anchor="middle" x="359.29" y="-84.95" font-family="Times,serif" font-size="14.00">Plant Growth</text>
</g>
<!-- Sunlight&#45;&gt;Plant Growth -->
<g id="edge1" class="edge">
<title>Sunlight&#45;&gt;Plant Growth</title>
<path fill="none" stroke="black" d="M428.98,-145.81C417.26,-136.6 402.08,-124.65 388.87,-114.27"/>
<polygon fill="black" stroke="black" points="391.33,-111.75 381.3,-108.32 387,-117.25 391.33,-111.75"/>
</g>
<!-- Photolysis -->
<g id="node3" class="node">
<title>Photolysis</title>
<ellipse fill="none" stroke="black" cx="231.29" cy="-90" rx="49.3" ry="18"/>
<text text-anchor="middle" x="231.29" y="-84.95" font-family="Times,serif" font-size="14.00">Photolysis</text>
</g>
<!-- Sunlight&#45;&gt;Photolysis -->
<g id="edge2" class="edge">
<title>Sunlight&#45;&gt;Photolysis</title>
<path fill="none" stroke="black" d="M415.33,-150.37C378.84,-138.6 319.71,-119.52 278.35,-106.18"/>
<polygon fill="black" stroke="black" points="279.49,-102.87 268.9,-103.13 277.34,-109.53 279.49,-102.87"/>
</g>
<!-- Electron Excitation -->
<g id="node4" class="node">
<title>Electron Excitation</title>
<ellipse fill="none" stroke="black" cx="559.29" cy="-90" rx="82.57" ry="18"/>
<text text-anchor="middle" x="559.29" y="-84.95" font-family="Times,serif" font-size="14.00">Electron Excitation</text>
</g>
<!-- Sunlight&#45;&gt;Electron Excitation -->
<g id="edge3" class="edge">
<title>Sunlight&#45;&gt;Electron Excitation</title>
<path fill="none" stroke="black" d="M471.29,-146.5C486.36,-136.99 506.38,-124.37 523.51,-113.56"/>
<polygon fill="black" stroke="black" points="525.33,-116.55 531.93,-108.26 521.6,-110.63 525.33,-116.55"/>
</g>
<!-- ATP Formation -->
<g id="node5" class="node">
<title>ATP Formation</title>
<ellipse fill="none" stroke="black" cx="670.29" cy="-18" rx="68.24" ry="18"/>
<text text-anchor="middle" x="670.29" y="-12.95" font-family="Times,serif" font-size="14.00">ATP Formation</text>
</g>
<!-- Sunlight&#45;&gt;ATP Formation -->
<g id="edge4" class="edge">
<title>Sunlight&#45;&gt;ATP Formation</title>
<path fill="none" stroke="black" d="M487.99,-155.63C540.5,-147.72 629.01,-131.3 651.29,-108 666.57,-92.02 670.82,-66.91 671.53,-47.43"/>
<polygon fill="black" stroke="black" points="675.03,-47.69 671.58,-37.68 668.03,-47.66 675.03,-47.69"/>
</g>
<!-- NADPH Formation -->
<g id="node6" class="node">
<title>NADPH Formation</title>
<ellipse fill="none" stroke="black" cx="500.29" cy="-18" rx="84.11" ry="18"/>
<text text-anchor="middle" x="500.29" y="-12.95" font-family="Times,serif" font-size="14.00">NADPH Formation</text>
</g>
<!-- Sunlight&#45;&gt;NADPH Formation -->
<g id="edge5" class="edge">
<title>Sunlight&#45;&gt;NADPH Formation</title>
<path fill="none" stroke="black" d="M450.17,-143.75C452.58,-125.43 457.65,-95.88 467.29,-72 470.98,-62.85 476.22,-53.51 481.43,-45.27"/>
<polygon fill="black" stroke="black" points="484.24,-47.38 486.85,-37.11 478.4,-43.51 484.24,-47.38"/>
</g>
<!-- Electron Supply -->
<g id="node8" class="node">
<title>Electron Supply</title>
<ellipse fill="none" stroke="black" cx="229.29" cy="-18" rx="70.8" ry="18"/>
<text text-anchor="middle" x="229.29" y="-12.95" font-family="Times,serif" font-size="14.00">Electron Supply</text>
</g>
<!-- Photolysis&#45;&gt;Electron Supply -->
<g id="edge11" class="edge">
<title>Photolysis&#45;&gt;Electron Supply</title>
<path fill="none" stroke="black" d="M230.79,-71.7C230.59,-64.41 230.34,-55.73 230.1,-47.54"/>
<polygon fill="black" stroke="black" points="233.6,-47.51 229.82,-37.62 226.61,-47.71 233.6,-47.51"/>
</g>
<!-- Proton Gradient -->
<g id="node9" class="node">
<title>Proton Gradient</title>
<ellipse fill="none" stroke="black" cx="70.29" cy="-18" rx="70.29" ry="18"/>
<text text-anchor="middle" x="70.29" y="-12.95" font-family="Times,serif" font-size="14.00">Proton Gradient</text>
</g>
<!-- Photolysis&#45;&gt;Proton Gradient -->
<g id="edge12" class="edge">
<title>Photolysis&#45;&gt;Proton Gradient</title>
<path fill="none" stroke="black" d="M200.63,-75.67C176.54,-65.2 142.65,-50.46 115.46,-38.64"/>
<polygon fill="black" stroke="black" points="116.98,-35.49 106.42,-34.71 114.19,-41.91 116.98,-35.49"/>
</g>
<!-- Oxygen -->
<g id="node10" class="node">
<title>Oxygen</title>
<ellipse fill="none" stroke="black" cx="358.29" cy="-18" rx="40.09" ry="18"/>
<text text-anchor="middle" x="358.29" y="-12.95" font-family="Times,serif" font-size="14.00">Oxygen</text>
</g>
<!-- Photolysis&#45;&gt;Oxygen -->
<g id="edge10" class="edge">
<title>Photolysis&#45;&gt;Oxygen</title>
<path fill="none" stroke="black" d="M257.6,-74.5C276.75,-63.94 302.85,-49.56 323.68,-38.07"/>
<polygon fill="black" stroke="black" points="325.34,-41.16 332.41,-33.27 321.96,-35.03 325.34,-41.16"/>
</g>
<!-- Electron Excitation&#45;&gt;ATP Formation -->
<g id="edge13" class="edge">
<title>Electron Excitation&#45;&gt;ATP Formation</title>
<path fill="none" stroke="black" d="M585.31,-72.59C600.17,-63.22 619,-51.34 635.16,-41.16"/>
<polygon fill="black" stroke="black" points="636.94,-44.17 643.53,-35.88 633.2,-38.25 636.94,-44.17"/>
</g>
<!-- Electron Excitation&#45;&gt;NADPH Formation -->
<g id="edge14" class="edge">
<title>Electron Excitation&#45;&gt;NADPH Formation</title>
<path fill="none" stroke="black" d="M545.01,-72.05C538.05,-63.8 529.54,-53.7 521.81,-44.54"/>
<polygon fill="black" stroke="black" points="524.54,-42.34 515.41,-36.95 519.18,-46.85 524.54,-42.34"/>
</g>
<!-- Water -->
<g id="node7" class="node">
<title>Water</title>
<ellipse fill="none" stroke="black" cx="193.29" cy="-162" rx="33.44" ry="18"/>
<text text-anchor="middle" x="193.29" y="-156.95" font-family="Times,serif" font-size="14.00">Water</text>
</g>
<!-- Water&#45;&gt;Plant Growth -->
<g id="edge6" class="edge">
<title>Water&#45;&gt;Plant Growth</title>
<path fill="none" stroke="black" d="M218.86,-150.22C244.41,-139.44 284.19,-122.67 314.9,-109.72"/>
<polygon fill="black" stroke="black" points="316.09,-113.01 323.95,-105.9 313.37,-106.56 316.09,-113.01"/>
</g>
<!-- Water&#45;&gt;Photolysis -->
<g id="edge7" class="edge">
<title>Water&#45;&gt;Photolysis</title>
<path fill="none" stroke="black" d="M202.29,-144.41C206.58,-136.51 211.83,-126.85 216.67,-117.94"/>
<polygon fill="black" stroke="black" points="219.67,-119.74 221.36,-109.29 213.51,-116.41 219.67,-119.74"/>
</g>
<!-- Water&#45;&gt;Electron Supply -->
<g id="edge8" class="edge">
<title>Water&#45;&gt;Electron Supply</title>
<path fill="none" stroke="black" d="M183.59,-144.36C174.25,-126.04 162.96,-96 173.29,-72 178.14,-60.73 186.7,-50.73 195.69,-42.54"/>
<polygon fill="black" stroke="black" points="197.78,-45.35 203.18,-36.23 193.27,-40 197.78,-45.35"/>
</g>
<!-- Water&#45;&gt;Proton Gradient -->
<g id="edge9" class="edge">
<title>Water&#45;&gt;Proton Gradient</title>
<path fill="none" stroke="black" d="M179.66,-145.26C158.46,-120.79 117.4,-73.38 92.06,-44.14"/>
<polygon fill="black" stroke="black" points="94.93,-42.1 85.73,-36.83 89.64,-46.68 94.93,-42.1"/>
</g>
</g>
</svg>
