<?xml version="1.0" encoding="UTF-8" standalone="no"?>
<!DOCTYPE svg PUBLIC "-//W3C//DTD SVG 1.1//EN"
 "http://www.w3.org/Graphics/SVG/1.1/DTD/svg11.dtd">
<!-- Generated by graphviz version 10.0.1 (20240210.2158)
 -->
<!-- Title: G Pages: 1 -->
<svg width="228pt" height="332pt"
 viewBox="0.00 0.00 228.10 332.00" xmlns="http://www.w3.org/2000/svg" xmlns:xlink="http://www.w3.org/1999/xlink">
<g id="graph0" class="graph" transform="scale(1 1) rotate(0) translate(4 328)">
<title>G</title>
<polygon fill="white" stroke="none" points="-4,4 -4,-328 224.1,-328 224.1,4 -4,4"/>
<!-- apples -->
<g id="node1" class="node">
<title>apples</title>
<ellipse fill="none" stroke="black" cx="176.48" cy="-306" rx="34.46" ry="18"/>
<text text-anchor="middle" x="176.48" y="-300.95" font-family="Times,serif" font-size="14.00">apples</text>
</g>
<!-- tree -->
<g id="node2" class="node">
<title>tree</title>
<ellipse fill="none" stroke="black" cx="149.48" cy="-234" rx="27" ry="18"/>
<text text-anchor="middle" x="149.48" y="-228.95" font-family="Times,serif" font-size="14.00">tree</text>
</g>
<!-- apples&#45;&gt;tree -->
<g id="edge1" class="edge">
<title>apples&#45;&gt;tree</title>
<path fill="none" stroke="black" d="M169.95,-288.05C166.96,-280.32 163.35,-270.96 160,-262.27"/>
<polygon fill="black" stroke="black" points="163.37,-261.27 156.51,-253.2 156.84,-263.79 163.37,-261.27"/>
</g>
<!-- seed germination -->
<g id="node3" class="node">
<title>seed germination</title>
<ellipse fill="none" stroke="black" cx="113.48" cy="-162" rx="74.89" ry="18"/>
<text text-anchor="middle" x="113.48" y="-156.95" font-family="Times,serif" font-size="14.00">seed germination</text>
</g>
<!-- tree&#45;&gt;seed germination -->
<g id="edge2" class="edge">
<title>tree&#45;&gt;seed germination</title>
<path fill="none" stroke="black" d="M141.14,-216.76C137.07,-208.87 132.08,-199.16 127.46,-190.18"/>
<polygon fill="black" stroke="black" points="130.67,-188.76 122.98,-181.47 124.44,-191.96 130.67,-188.76"/>
</g>
<!-- soil nutrients absorption -->
<g id="node4" class="node">
<title>soil nutrients absorption</title>
<ellipse fill="none" stroke="black" cx="100.48" cy="-90" rx="100.48" ry="18"/>
<text text-anchor="middle" x="100.48" y="-84.95" font-family="Times,serif" font-size="14.00">soil nutrients absorption</text>
</g>
<!-- seed germination&#45;&gt;soil nutrients absorption -->
<g id="edge3" class="edge">
<title>seed germination&#45;&gt;soil nutrients absorption</title>
<path fill="none" stroke="black" d="M110.27,-143.7C108.9,-136.32 107.27,-127.52 105.73,-119.25"/>
<polygon fill="black" stroke="black" points="109.21,-118.79 103.94,-109.59 102.32,-120.06 109.21,-118.79"/>
</g>
<!-- tree growth -->
<g id="node5" class="node">
<title>tree growth</title>
<ellipse fill="none" stroke="black" cx="164.48" cy="-18" rx="53.4" ry="18"/>
<text text-anchor="middle" x="164.48" y="-12.95" font-family="Times,serif" font-size="14.00">tree growth</text>
</g>
<!-- soil nutrients absorption&#45;&gt;tree growth -->
<g id="edge4" class="edge">
<title>soil nutrients absorption&#45;&gt;tree growth</title>
<path fill="none" stroke="black" d="M115.98,-72.05C123.79,-63.5 133.42,-52.97 142.03,-43.56"/>
<polygon fill="black" stroke="black" points="144.39,-46.17 148.55,-36.42 139.22,-41.44 144.39,-46.17"/>
</g>
<!-- tree growth&#45;&gt;apples -->
<g id="edge5" class="edge">
<title>tree growth&#45;&gt;apples</title>
<path fill="none" stroke="black" d="M183.46,-35.08C193.26,-44.66 204.24,-57.72 209.48,-72 235.53,-142.91 206.73,-232.94 188.73,-277.48"/>
<polygon fill="black" stroke="black" points="185.53,-276.06 184.9,-286.63 191.99,-278.76 185.53,-276.06"/>
</g>
</g>
</svg>
