<?xml version="1.0" encoding="UTF-8" standalone="no"?>
<!DOCTYPE svg PUBLIC "-//W3C//DTD SVG 1.1//EN"
 "http://www.w3.org/Graphics/SVG/1.1/DTD/svg11.dtd">
<!-- Generated by graphviz version 10.0.1 (20240210.2158)
 -->
<!-- Title: G Pages: 1 -->
<svg width="105pt" height="260pt"
 viewBox="0.00 0.00 104.56 260.00" xmlns="http://www.w3.org/2000/svg" xmlns:xlink="http://www.w3.org/1999/xlink">
<g id="graph0" class="graph" transform="scale(1 1) rotate(0) translate(4 256)">
<title>G</title>
<polygon fill="white" stroke="none" points="-4,4 -4,-256 100.56,-256 100.56,4 -4,4"/>
<!-- Flour -->
<g id="node1" class="node">
<title>Flour</title>
<ellipse fill="none" stroke="black" cx="48.28" cy="-234" rx="30.88" ry="18"/>
<text text-anchor="middle" x="48.28" y="-228.95" font-family="Times,serif" font-size="14.00">Flour</text>
</g>
<!-- Cake Mix -->
<g id="node2" class="node">
<title>Cake Mix</title>
<ellipse fill="none" stroke="black" cx="48.28" cy="-162" rx="48.28" ry="18"/>
<text text-anchor="middle" x="48.28" y="-156.95" font-family="Times,serif" font-size="14.00">Cake Mix</text>
</g>
<!-- Flour&#45;&gt;Cake Mix -->
<g id="edge1" class="edge">
<title>Flour&#45;&gt;Cake Mix</title>
<path fill="none" stroke="black" d="M48.28,-215.7C48.28,-208.41 48.28,-199.73 48.28,-191.54"/>
<polygon fill="black" stroke="black" points="51.78,-191.62 48.28,-181.62 44.78,-191.62 51.78,-191.62"/>
</g>
<!-- Baking -->
<g id="node3" class="node">
<title>Baking</title>
<ellipse fill="none" stroke="black" cx="48.28" cy="-90" rx="37.53" ry="18"/>
<text text-anchor="middle" x="48.28" y="-84.95" font-family="Times,serif" font-size="14.00">Baking</text>
</g>
<!-- Cake Mix&#45;&gt;Baking -->
<g id="edge2" class="edge">
<title>Cake Mix&#45;&gt;Baking</title>
<path fill="none" stroke="black" d="M48.28,-143.7C48.28,-136.41 48.28,-127.73 48.28,-119.54"/>
<polygon fill="black" stroke="black" points="51.78,-119.62 48.28,-109.62 44.78,-119.62 51.78,-119.62"/>
</g>
<!-- Cake -->
<g id="node4" class="node">
<title>Cake</title>
<ellipse fill="none" stroke="black" cx="48.28" cy="-18" rx="29.86" ry="18"/>
<text text-anchor="middle" x="48.28" y="-12.95" font-family="Times,serif" font-size="14.00">Cake</text>
</g>
<!-- Baking&#45;&gt;Cake -->
<g id="edge3" class="edge">
<title>Baking&#45;&gt;Cake</title>
<path fill="none" stroke="black" d="M48.28,-71.7C48.28,-64.41 48.28,-55.73 48.28,-47.54"/>
<polygon fill="black" stroke="black" points="51.78,-47.62 48.28,-37.62 44.78,-47.62 51.78,-47.62"/>
</g>
</g>
</svg>
