<?xml version="1.0" encoding="UTF-8" standalone="no"?>
<!DOCTYPE svg PUBLIC "-//W3C//DTD SVG 1.1//EN"
 "http://www.w3.org/Graphics/SVG/1.1/DTD/svg11.dtd">
<!-- Generated by graphviz version 10.0.1 (20240210.2158)
 -->
<!-- Title: G Pages: 1 -->
<svg width="457pt" height="188pt"
 viewBox="0.00 0.00 457.36 188.00" xmlns="http://www.w3.org/2000/svg" xmlns:xlink="http://www.w3.org/1999/xlink">
<g id="graph0" class="graph" transform="scale(1 1) rotate(0) translate(4 184)">
<title>G</title>
<polygon fill="white" stroke="none" points="-4,4 -4,-184 453.36,-184 453.36,4 -4,4"/>
<!-- European Fascism -->
<g id="node1" class="node">
<title>European Fascism</title>
<ellipse fill="none" stroke="black" cx="206.47" cy="-162" rx="79.5" ry="18"/>
<text text-anchor="middle" x="206.47" y="-156.95" font-family="Times,serif" font-size="14.00">European Fascism</text>
</g>
<!-- Germany -->
<g id="node2" class="node">
<title>Germany</title>
<ellipse fill="none" stroke="black" cx="85.47" cy="-90" rx="45.72" ry="18"/>
<text text-anchor="middle" x="85.47" y="-84.95" font-family="Times,serif" font-size="14.00">Germany</text>
</g>
<!-- European Fascism&#45;&gt;Germany -->
<g id="edge1" class="edge">
<title>European Fascism&#45;&gt;Germany</title>
<path fill="none" stroke="black" d="M178.41,-144.76C161.09,-134.75 138.73,-121.81 120.29,-111.14"/>
<polygon fill="black" stroke="black" points="122.22,-108.22 111.81,-106.24 118.72,-114.28 122.22,-108.22"/>
</g>
<!-- Italy -->
<g id="node3" class="node">
<title>Italy</title>
<ellipse fill="none" stroke="black" cx="206.47" cy="-90" rx="27.81" ry="18"/>
<text text-anchor="middle" x="206.47" y="-84.95" font-family="Times,serif" font-size="14.00">Italy</text>
</g>
<!-- European Fascism&#45;&gt;Italy -->
<g id="edge2" class="edge">
<title>European Fascism&#45;&gt;Italy</title>
<path fill="none" stroke="black" d="M206.47,-143.7C206.47,-136.41 206.47,-127.73 206.47,-119.54"/>
<polygon fill="black" stroke="black" points="209.97,-119.62 206.47,-109.62 202.97,-119.62 209.97,-119.62"/>
</g>
<!-- Spain -->
<g id="node4" class="node">
<title>Spain</title>
<ellipse fill="none" stroke="black" cx="329.47" cy="-90" rx="31.9" ry="18"/>
<text text-anchor="middle" x="329.47" y="-84.95" font-family="Times,serif" font-size="14.00">Spain</text>
</g>
<!-- European Fascism&#45;&gt;Spain -->
<g id="edge3" class="edge">
<title>European Fascism&#45;&gt;Spain</title>
<path fill="none" stroke="black" d="M235,-144.76C253.77,-134.08 278.35,-120.09 297.74,-109.06"/>
<polygon fill="black" stroke="black" points="299.35,-112.17 306.31,-104.18 295.88,-106.09 299.35,-112.17"/>
</g>
<!-- Adolf Hitler -->
<g id="node5" class="node">
<title>Adolf Hitler</title>
<ellipse fill="none" stroke="black" cx="56.47" cy="-18" rx="56.47" ry="18"/>
<text text-anchor="middle" x="56.47" y="-12.95" font-family="Times,serif" font-size="14.00">Adolf Hitler</text>
</g>
<!-- Germany&#45;&gt;Adolf Hitler -->
<g id="edge4" class="edge">
<title>Germany&#45;&gt;Adolf Hitler</title>
<path fill="none" stroke="black" d="M78.45,-72.05C75.29,-64.43 71.48,-55.23 67.92,-46.65"/>
<polygon fill="black" stroke="black" points="71.27,-45.57 64.21,-37.67 64.8,-48.25 71.27,-45.57"/>
</g>
<!-- Benito Mussolini -->
<g id="node6" class="node">
<title>Benito Mussolini</title>
<ellipse fill="none" stroke="black" cx="206.47" cy="-18" rx="75.41" ry="18"/>
<text text-anchor="middle" x="206.47" y="-12.95" font-family="Times,serif" font-size="14.00">Benito Mussolini</text>
</g>
<!-- Italy&#45;&gt;Benito Mussolini -->
<g id="edge5" class="edge">
<title>Italy&#45;&gt;Benito Mussolini</title>
<path fill="none" stroke="black" d="M206.47,-71.7C206.47,-64.41 206.47,-55.73 206.47,-47.54"/>
<polygon fill="black" stroke="black" points="209.97,-47.62 206.47,-37.62 202.97,-47.62 209.97,-47.62"/>
</g>
<!-- Francisco Franco -->
<g id="node7" class="node">
<title>Francisco Franco</title>
<ellipse fill="none" stroke="black" cx="374.47" cy="-18" rx="74.89" ry="18"/>
<text text-anchor="middle" x="374.47" y="-12.95" font-family="Times,serif" font-size="14.00">Francisco Franco</text>
</g>
<!-- Spain&#45;&gt;Francisco Franco -->
<g id="edge6" class="edge">
<title>Spain&#45;&gt;Francisco Franco</title>
<path fill="none" stroke="black" d="M339.91,-72.76C345.09,-64.7 351.49,-54.74 357.37,-45.6"/>
<polygon fill="black" stroke="black" points="360.18,-47.7 362.64,-37.4 354.29,-43.92 360.18,-47.7"/>
</g>
</g>
</svg>
