<?xml version="1.0" encoding="UTF-8" standalone="no"?>
<!DOCTYPE svg PUBLIC "-//W3C//DTD SVG 1.1//EN"
 "http://www.w3.org/Graphics/SVG/1.1/DTD/svg11.dtd">
<!-- Generated by graphviz version 10.0.1 (20240210.2158)
 -->
<!-- Title: G Pages: 1 -->
<svg width="309pt" height="116pt"
 viewBox="0.00 0.00 309.13 116.00" xmlns="http://www.w3.org/2000/svg" xmlns:xlink="http://www.w3.org/1999/xlink">
<g id="graph0" class="graph" transform="scale(1 1) rotate(0) translate(4 112)">
<title>G</title>
<polygon fill="white" stroke="none" points="-4,4 -4,-112 305.13,-112 305.13,4 -4,4"/>
<!-- Sunlight -->
<g id="node1" class="node">
<title>Sunlight</title>
<ellipse fill="none" stroke="black" cx="40.58" cy="-90" rx="40.58" ry="18"/>
<text text-anchor="middle" x="40.58" y="-84.58" font-family="Times New Roman,serif" font-size="14.00">Sunlight</text>
</g>
<!-- PlantGrowth -->
<g id="node2" class="node">
<title>PlantGrowth</title>
<ellipse fill="none" stroke="black" cx="132.58" cy="-18" rx="57.55" ry="18"/>
<text text-anchor="middle" x="132.58" y="-12.57" font-family="Times New Roman,serif" font-size="14.00">PlantGrowth</text>
</g>
<!-- Sunlight&#45;&gt;PlantGrowth -->
<g id="edge1" class="edge">
<title>Sunlight&#45;&gt;PlantGrowth</title>
<path fill="none" stroke="black" d="M60.1,-74.15C72.47,-64.74 88.72,-52.37 102.7,-41.73"/>
<polygon fill="black" stroke="black" points="104.46,-44.8 110.3,-35.96 100.22,-39.23 104.46,-44.8"/>
</g>
<!-- Water -->
<g id="node3" class="node">
<title>Water</title>
<ellipse fill="none" stroke="black" cx="132.58" cy="-90" rx="33.1" ry="18"/>
<text text-anchor="middle" x="132.58" y="-84.58" font-family="Times New Roman,serif" font-size="14.00">Water</text>
</g>
<!-- Water&#45;&gt;PlantGrowth -->
<g id="edge2" class="edge">
<title>Water&#45;&gt;PlantGrowth</title>
<path fill="none" stroke="black" d="M132.58,-71.7C132.58,-64.41 132.58,-55.73 132.58,-47.54"/>
<polygon fill="black" stroke="black" points="136.09,-47.62 132.58,-37.62 129.09,-47.62 136.09,-47.62"/>
</g>
<!-- SoilNutrients -->
<g id="node4" class="node">
<title>SoilNutrients</title>
<ellipse fill="none" stroke="black" cx="242.58" cy="-90" rx="58.55" ry="18"/>
<text text-anchor="middle" x="242.58" y="-84.58" font-family="Times New Roman,serif" font-size="14.00">SoilNutrients</text>
</g>
<!-- SoilNutrients&#45;&gt;PlantGrowth -->
<g id="edge3" class="edge">
<title>SoilNutrients&#45;&gt;PlantGrowth</title>
<path fill="none" stroke="black" d="M217.9,-73.29C202.75,-63.65 183.15,-51.18 166.56,-40.62"/>
<polygon fill="black" stroke="black" points="168.78,-37.89 158.47,-35.47 165.02,-43.79 168.78,-37.89"/>
</g>
</g>
</svg>
