<?xml version="1.0" encoding="UTF-8" standalone="no"?>
<!DOCTYPE svg PUBLIC "-//W3C//DTD SVG 1.1//EN"
 "http://www.w3.org/Graphics/SVG/1.1/DTD/svg11.dtd">
<!-- Generated by graphviz version 10.0.1 (20240210.2158)
 -->
<!-- Title: G Pages: 1 -->
<svg width="220pt" height="260pt"
 viewBox="0.00 0.00 220.22 260.00" xmlns="http://www.w3.org/2000/svg" xmlns:xlink="http://www.w3.org/1999/xlink">
<g id="graph0" class="graph" transform="scale(1 1) rotate(0) translate(4 256)">
<title>G</title>
<polygon fill="white" stroke="none" points="-4,4 -4,-256 216.22,-256 216.22,4 -4,4"/>
<!-- bob -->
<g id="node1" class="node">
<title>bob</title>
<ellipse fill="none" stroke="black" cx="103.11" cy="-162" rx="27" ry="18"/>
<text text-anchor="middle" x="103.11" y="-156.57" font-family="Times New Roman,serif" font-size="14.00">bob</text>
</g>
<!-- sally -->
<g id="node2" class="node">
<title>sally</title>
<ellipse fill="none" stroke="black" cx="27.11" cy="-90" rx="27.11" ry="18"/>
<text text-anchor="middle" x="27.11" y="-84.58" font-family="Times New Roman,serif" font-size="14.00">sally</text>
</g>
<!-- bob&#45;&gt;sally -->
<g id="edge1" class="edge">
<title>bob&#45;&gt;sally</title>
<path fill="none" stroke="black" d="M87.73,-146.83C77.12,-137.06 62.81,-123.88 50.76,-112.78"/>
<polygon fill="black" stroke="black" points="53.31,-110.37 43.58,-106.17 48.57,-115.52 53.31,-110.37"/>
</g>
<!-- jonny -->
<g id="node3" class="node">
<title>jonny</title>
<ellipse fill="none" stroke="black" cx="103.11" cy="-90" rx="31.1" ry="18"/>
<text text-anchor="middle" x="103.11" y="-84.58" font-family="Times New Roman,serif" font-size="14.00">jonny</text>
</g>
<!-- bob&#45;&gt;jonny -->
<g id="edge2" class="edge">
<title>bob&#45;&gt;jonny</title>
<path fill="none" stroke="black" d="M103.11,-143.7C103.11,-136.41 103.11,-127.73 103.11,-119.54"/>
<polygon fill="black" stroke="black" points="106.61,-119.62 103.11,-109.62 99.61,-119.62 106.61,-119.62"/>
</g>
<!-- sarah -->
<g id="node4" class="node">
<title>sarah</title>
<ellipse fill="none" stroke="black" cx="182.11" cy="-90" rx="30.11" ry="18"/>
<text text-anchor="middle" x="182.11" y="-84.58" font-family="Times New Roman,serif" font-size="14.00">sarah</text>
</g>
<!-- bob&#45;&gt;sarah -->
<g id="edge3" class="edge">
<title>bob&#45;&gt;sarah</title>
<path fill="none" stroke="black" d="M118.72,-147.17C129.75,-137.39 144.77,-124.09 157.42,-112.88"/>
<polygon fill="black" stroke="black" points="159.42,-115.78 164.59,-106.53 154.78,-110.54 159.42,-115.78"/>
</g>
<!-- 0 -->
<g id="node6" class="node">
<title>0</title>
<ellipse fill="none" stroke="black" cx="103.11" cy="-18" rx="27" ry="18"/>
<text text-anchor="middle" x="103.11" y="-12.57" font-family="Times New Roman,serif" font-size="14.00">0</text>
</g>
<!-- jonny&#45;&gt;0 -->
<g id="edge7" class="edge">
<title>jonny&#45;&gt;0</title>
<path fill="none" stroke="black" d="M103.11,-71.7C103.11,-64.41 103.11,-55.73 103.11,-47.54"/>
<polygon fill="black" stroke="black" points="106.61,-47.62 103.11,-37.62 99.61,-47.62 106.61,-47.62"/>
</g>
<!-- jim -->
<g id="node5" class="node">
<title>jim</title>
<ellipse fill="none" stroke="black" cx="103.11" cy="-234" rx="27" ry="18"/>
<text text-anchor="middle" x="103.11" y="-228.57" font-family="Times New Roman,serif" font-size="14.00">jim</text>
</g>
<!-- jim&#45;&gt;bob -->
<g id="edge5" class="edge">
<title>jim&#45;&gt;bob</title>
<path fill="none" stroke="black" d="M103.11,-215.7C103.11,-208.41 103.11,-199.73 103.11,-191.54"/>
<polygon fill="black" stroke="black" points="106.61,-191.62 103.11,-181.62 99.61,-191.62 106.61,-191.62"/>
</g>
<!-- jim&#45;&gt;sally -->
<g id="edge4" class="edge">
<title>jim&#45;&gt;sally</title>
<path fill="none" stroke="black" d="M91.66,-217.69C84.19,-207.34 74.49,-193.21 67.11,-180 55.94,-160.01 45.42,-136.32 37.97,-118.4"/>
<polygon fill="black" stroke="black" points="41.24,-117.16 34.22,-109.23 34.76,-119.81 41.24,-117.16"/>
</g>
<!-- jim&#45;&gt;sarah -->
<g id="edge6" class="edge">
<title>jim&#45;&gt;sarah</title>
<path fill="none" stroke="black" d="M114.44,-217.62C121.86,-207.24 131.55,-193.1 139.11,-180 150.76,-159.81 162.15,-136 170.28,-118.08"/>
<polygon fill="black" stroke="black" points="173.38,-119.72 174.27,-109.16 166.99,-116.86 173.38,-119.72"/>
</g>
</g>
</svg>
