<?xml version="1.0" encoding="UTF-8" standalone="no"?>
<!DOCTYPE svg PUBLIC "-//W3C//DTD SVG 1.1//EN"
 "http://www.w3.org/Graphics/SVG/1.1/DTD/svg11.dtd">
<!-- Generated by graphviz version 10.0.1 (20240210.2158)
 -->
<!-- Title: G Pages: 1 -->
<svg width="106pt" height="188pt"
 viewBox="0.00 0.00 106.44 188.00" xmlns="http://www.w3.org/2000/svg" xmlns:xlink="http://www.w3.org/1999/xlink">
<g id="graph0" class="graph" transform="scale(1 1) rotate(0) translate(4 184)">
<title>G</title>
<polygon fill="white" stroke="none" points="-4,4 -4,-184 102.44,-184 102.44,4 -4,4"/>
<!-- Hello -->
<g id="node1" class="node">
<title>Hello</title>
<ellipse fill="none" stroke="black" cx="34.46" cy="-90" rx="31.39" ry="18"/>
<text text-anchor="middle" x="34.46" y="-84.95" font-family="Times,serif" font-size="14.00">Hello</text>
</g>
<!-- World -->
<g id="node2" class="node">
<title>World</title>
<ellipse fill="none" stroke="black" cx="34.46" cy="-18" rx="34.46" ry="18"/>
<text text-anchor="middle" x="34.46" y="-12.95" font-family="Times,serif" font-size="14.00">World</text>
</g>
<!-- Hello&#45;&gt;World -->
<g id="edge1" class="edge">
<title>Hello&#45;&gt;World</title>
<path fill="none" stroke="black" d="M28.58,-72.05C27.79,-64.57 27.54,-55.58 27.83,-47.14"/>
<polygon fill="black" stroke="black" points="31.31,-47.51 28.5,-37.3 24.33,-47.04 31.31,-47.51"/>
</g>
<!-- World&#45;&gt;Hello -->
<g id="edge4" class="edge">
<title>World&#45;&gt;Hello</title>
<path fill="none" stroke="black" d="M40.32,-35.79C41.12,-43.25 41.38,-52.24 41.1,-60.69"/>
<polygon fill="black" stroke="black" points="37.62,-60.33 40.44,-70.54 44.6,-60.8 37.62,-60.33"/>
</g>
<!-- Maple -->
<g id="node3" class="node">
<title>Maple</title>
<ellipse fill="none" stroke="black" cx="63.46" cy="-162" rx="34.97" ry="18"/>
<text text-anchor="middle" x="63.46" y="-156.95" font-family="Times,serif" font-size="14.00">Maple</text>
</g>
<!-- Maple&#45;&gt;Hello -->
<g id="edge3" class="edge">
<title>Maple&#45;&gt;Hello</title>
<path fill="none" stroke="black" d="M56.44,-144.05C53.24,-136.32 49.36,-126.96 45.76,-118.27"/>
<polygon fill="black" stroke="black" points="49.06,-117.09 42,-109.19 42.59,-119.77 49.06,-117.09"/>
</g>
<!-- Maple&#45;&gt;World -->
<g id="edge2" class="edge">
<title>Maple&#45;&gt;World</title>
<path fill="none" stroke="black" d="M69.95,-143.82C75.86,-125.56 82.52,-96.06 74.46,-72 70.91,-61.4 64.32,-51.23 57.49,-42.68"/>
<polygon fill="black" stroke="black" points="60.28,-40.56 51.11,-35.25 54.96,-45.12 60.28,-40.56"/>
</g>
</g>
</svg>
