<?xml version="1.0" encoding="UTF-8" standalone="no"?>
<!DOCTYPE svg PUBLIC "-//W3C//DTD SVG 1.1//EN"
 "http://www.w3.org/Graphics/SVG/1.1/DTD/svg11.dtd">
<!-- Generated by graphviz version 10.0.1 (20240210.2158)
 -->
<!-- Title: G Pages: 1 -->
<svg width="206pt" height="332pt"
 viewBox="0.00 0.00 205.83 332.00" xmlns="http://www.w3.org/2000/svg" xmlns:xlink="http://www.w3.org/1999/xlink">
<g id="graph0" class="graph" transform="scale(1 1) rotate(0) translate(4 328)">
<title>G</title>
<polygon fill="white" stroke="none" points="-4,4 -4,-328 201.83,-328 201.83,4 -4,4"/>
<!-- Nancy -->
<g id="node1" class="node">
<title>Nancy</title>
<ellipse fill="none" stroke="black" cx="117.93" cy="-306" rx="34.97" ry="18"/>
<text text-anchor="middle" x="117.93" y="-300.95" font-family="Times,serif" font-size="14.00">Nancy</text>
</g>
<!-- Fred -->
<g id="node2" class="node">
<title>Fred</title>
<ellipse fill="none" stroke="black" cx="117.93" cy="-234" rx="27.81" ry="18"/>
<text text-anchor="middle" x="117.93" y="-228.95" font-family="Times,serif" font-size="14.00">Fred</text>
</g>
<!-- Nancy&#45;&gt;Fred -->
<g id="edge1" class="edge">
<title>Nancy&#45;&gt;Fred</title>
<path fill="none" stroke="black" d="M112.05,-288.05C111.25,-280.57 111,-271.58 111.29,-263.14"/>
<polygon fill="black" stroke="black" points="114.78,-263.51 111.96,-253.3 107.79,-263.04 114.78,-263.51"/>
</g>
<!-- Sally -->
<g id="node3" class="node">
<title>Sally</title>
<ellipse fill="none" stroke="black" cx="77.93" cy="-162" rx="29.86" ry="18"/>
<text text-anchor="middle" x="77.93" y="-156.95" font-family="Times,serif" font-size="14.00">Sally</text>
</g>
<!-- Nancy&#45;&gt;Sally -->
<g id="edge2" class="edge">
<title>Nancy&#45;&gt;Sally</title>
<path fill="none" stroke="black" d="M103.21,-289.18C95.01,-279.29 85.54,-265.84 80.93,-252 74.45,-232.57 73.88,-209.43 74.83,-191.61"/>
<polygon fill="black" stroke="black" points="78.31,-191.98 75.56,-181.75 71.33,-191.46 78.31,-191.98"/>
</g>
<!-- Sarah -->
<g id="node4" class="node">
<title>Sarah</title>
<ellipse fill="none" stroke="black" cx="165.93" cy="-162" rx="31.9" ry="18"/>
<text text-anchor="middle" x="165.93" y="-156.95" font-family="Times,serif" font-size="14.00">Sarah</text>
</g>
<!-- Nancy&#45;&gt;Sarah -->
<g id="edge3" class="edge">
<title>Nancy&#45;&gt;Sarah</title>
<path fill="none" stroke="black" d="M131.83,-289.48C139.95,-279.49 149.62,-265.83 154.93,-252 162.31,-232.75 165,-209.6 165.87,-191.73"/>
<polygon fill="black" stroke="black" points="169.37,-191.94 166.18,-181.83 162.37,-191.72 169.37,-191.94"/>
</g>
<!-- Fred&#45;&gt;Nancy -->
<g id="edge4" class="edge">
<title>Fred&#45;&gt;Nancy</title>
<path fill="none" stroke="black" d="M123.79,-251.79C124.59,-259.25 124.85,-268.24 124.57,-276.69"/>
<polygon fill="black" stroke="black" points="121.08,-276.33 123.91,-286.54 128.07,-276.8 121.08,-276.33"/>
</g>
<!-- Fred&#45;&gt;Sally -->
<g id="edge5" class="edge">
<title>Fred&#45;&gt;Sally</title>
<path fill="none" stroke="black" d="M108.65,-216.76C103.95,-208.55 98.14,-198.37 92.84,-189.09"/>
<polygon fill="black" stroke="black" points="95.9,-187.41 87.9,-180.46 89.83,-190.88 95.9,-187.41"/>
</g>
<!-- Fred&#45;&gt;Sarah -->
<g id="edge6" class="edge">
<title>Fred&#45;&gt;Sarah</title>
<path fill="none" stroke="black" d="M128.82,-217.12C134.57,-208.73 141.76,-198.24 148.28,-188.73"/>
<polygon fill="black" stroke="black" points="151.12,-190.78 153.89,-180.56 145.35,-186.82 151.12,-190.78"/>
</g>
<!-- Jeff -->
<g id="node5" class="node">
<title>Jeff</title>
<ellipse fill="none" stroke="black" cx="77.93" cy="-90" rx="27" ry="18"/>
<text text-anchor="middle" x="77.93" y="-84.95" font-family="Times,serif" font-size="14.00">Jeff</text>
</g>
<!-- Sally&#45;&gt;Jeff -->
<g id="edge7" class="edge">
<title>Sally&#45;&gt;Jeff</title>
<path fill="none" stroke="black" d="M72.05,-144.05C71.25,-136.57 71,-127.58 71.29,-119.14"/>
<polygon fill="black" stroke="black" points="74.78,-119.51 71.96,-109.3 67.79,-119.04 74.78,-119.51"/>
</g>
<!-- Jonny -->
<g id="node6" class="node">
<title>Jonny</title>
<ellipse fill="none" stroke="black" cx="32.93" cy="-18" rx="32.93" ry="18"/>
<text text-anchor="middle" x="32.93" y="-12.95" font-family="Times,serif" font-size="14.00">Jonny</text>
</g>
<!-- Sally&#45;&gt;Jonny -->
<g id="edge8" class="edge">
<title>Sally&#45;&gt;Jonny</title>
<path fill="none" stroke="black" d="M64.66,-145.91C56.64,-135.87 47.02,-122.01 41.93,-108 34.9,-88.67 32.73,-65.52 32.28,-47.68"/>
<polygon fill="black" stroke="black" points="35.78,-47.77 32.21,-37.8 28.78,-47.82 35.78,-47.77"/>
</g>
<!-- Timmy -->
<g id="node7" class="node">
<title>Timmy</title>
<ellipse fill="none" stroke="black" cx="127.93" cy="-18" rx="39.07" ry="18"/>
<text text-anchor="middle" x="127.93" y="-12.95" font-family="Times,serif" font-size="14.00">Timmy</text>
</g>
<!-- Sally&#45;&gt;Timmy -->
<g id="edge9" class="edge">
<title>Sally&#45;&gt;Timmy</title>
<path fill="none" stroke="black" d="M90.93,-145.81C98.84,-135.73 108.45,-121.86 113.93,-108 121.54,-88.73 125.02,-65.58 126.61,-47.72"/>
<polygon fill="black" stroke="black" points="130.1,-48.05 127.33,-37.82 123.11,-47.55 130.1,-48.05"/>
</g>
<!-- Jeff&#45;&gt;Sally -->
<g id="edge10" class="edge">
<title>Jeff&#45;&gt;Sally</title>
<path fill="none" stroke="black" d="M83.79,-107.79C84.59,-115.25 84.85,-124.24 84.57,-132.69"/>
<polygon fill="black" stroke="black" points="81.08,-132.33 83.91,-142.54 88.07,-132.8 81.08,-132.33"/>
</g>
<!-- Jeff&#45;&gt;Jonny -->
<g id="edge11" class="edge">
<title>Jeff&#45;&gt;Jonny</title>
<path fill="none" stroke="black" d="M67.72,-73.12C62.33,-64.73 55.58,-54.24 49.47,-44.73"/>
<polygon fill="black" stroke="black" points="52.58,-43.1 44.23,-36.58 46.69,-46.88 52.58,-43.1"/>
</g>
<!-- Jeff&#45;&gt;Timmy -->
<g id="edge12" class="edge">
<title>Jeff&#45;&gt;Timmy</title>
<path fill="none" stroke="black" d="M89.02,-73.46C95.06,-65.01 102.69,-54.32 109.59,-44.66"/>
<polygon fill="black" stroke="black" points="112.32,-46.87 115.28,-36.7 106.62,-42.8 112.32,-46.87"/>
</g>
</g>
</svg>
