<?xml version="1.0" encoding="UTF-8" standalone="no"?>
<!DOCTYPE svg PUBLIC "-//W3C//DTD SVG 1.1//EN"
 "http://www.w3.org/Graphics/SVG/1.1/DTD/svg11.dtd">
<!-- Generated by graphviz version 10.0.1 (20240210.2158)
 -->
<!-- Title: G Pages: 1 -->
<svg width="314pt" height="132pt"
 viewBox="0.00 0.00 313.63 131.75" xmlns="http://www.w3.org/2000/svg" xmlns:xlink="http://www.w3.org/1999/xlink">
<g id="graph0" class="graph" transform="scale(1 1) rotate(0) translate(4 127.75)">
<title>G</title>
<polygon fill="white" stroke="none" points="-4,4 -4,-127.75 309.63,-127.75 309.63,4 -4,4"/>
<!-- Sunlight -->
<g id="node1" class="node">
<title>Sunlight</title>
<ellipse fill="none" stroke="black" cx="40.58" cy="-105.75" rx="40.58" ry="18"/>
<text text-anchor="middle" x="40.58" y="-100.33" font-family="Times New Roman,serif" font-size="14.00">Sunlight</text>
</g>
<!-- Plant Growth -->
<g id="node2" class="node">
<title>Plant Growth</title>
<ellipse fill="none" stroke="black" cx="132.58" cy="-18" rx="60.05" ry="18"/>
<text text-anchor="middle" x="132.58" y="-12.57" font-family="Times New Roman,serif" font-size="14.00">Plant Growth</text>
</g>
<!-- Sunlight&#45;&gt;Plant Growth -->
<g id="edge1" class="edge">
<title>Sunlight&#45;&gt;Plant Growth</title>
<path fill="none" stroke="black" d="M49.38,-87.84C55.47,-77.25 64.3,-63.81 74.58,-54 80.02,-48.82 86.35,-44.05 92.79,-39.8"/>
<polygon fill="black" stroke="black" points="94.26,-43 100.92,-34.76 90.58,-37.05 94.26,-43"/>
<text text-anchor="middle" x="101.58" y="-56.45" font-family="Times New Roman,serif" font-size="14.00">Promotes</text>
</g>
<!-- Water -->
<g id="node3" class="node">
<title>Water</title>
<ellipse fill="none" stroke="black" cx="132.58" cy="-105.75" rx="33.1" ry="18"/>
<text text-anchor="middle" x="132.58" y="-100.33" font-family="Times New Roman,serif" font-size="14.00">Water</text>
</g>
<!-- Water&#45;&gt;Plant Growth -->
<g id="edge2" class="edge">
<title>Water&#45;&gt;Plant Growth</title>
<path fill="none" stroke="black" d="M132.58,-87.4C132.58,-76.01 132.58,-60.84 132.58,-47.68"/>
<polygon fill="black" stroke="black" points="136.09,-47.84 132.58,-37.84 129.09,-47.84 136.09,-47.84"/>
<text text-anchor="middle" x="167.08" y="-56.45" font-family="Times New Roman,serif" font-size="14.00">Essential for</text>
</g>
<!-- Soil Nutrients -->
<g id="node4" class="node">
<title>Soil Nutrients</title>
<ellipse fill="none" stroke="black" cx="244.58" cy="-105.75" rx="61.04" ry="18"/>
<text text-anchor="middle" x="244.58" y="-100.33" font-family="Times New Roman,serif" font-size="14.00">Soil Nutrients</text>
</g>
<!-- Soil Nutrients&#45;&gt;Plant Growth -->
<g id="edge3" class="edge">
<title>Soil Nutrients&#45;&gt;Plant Growth</title>
<path fill="none" stroke="black" d="M234.34,-87.55C227.29,-76.84 217.15,-63.38 205.58,-54 197.81,-47.7 188.72,-42.19 179.63,-37.53"/>
<polygon fill="black" stroke="black" points="181.35,-34.47 170.82,-33.28 178.31,-40.78 181.35,-34.47"/>
<text text-anchor="middle" x="245.46" y="-56.45" font-family="Times New Roman,serif" font-size="14.00">Supports</text>
</g>
</g>
</svg>
