<?xml version="1.0" encoding="UTF-8" standalone="no"?>
<!DOCTYPE svg PUBLIC "-//W3C//DTD SVG 1.1//EN"
 "http://www.w3.org/Graphics/SVG/1.1/DTD/svg11.dtd">
<!-- Generated by graphviz version 10.0.1 (20240210.2158)
 -->
<!-- Title: G Pages: 1 -->
<svg width="314pt" height="116pt"
 viewBox="0.00 0.00 313.63 116.00" xmlns="http://www.w3.org/2000/svg" xmlns:xlink="http://www.w3.org/1999/xlink">
<g id="graph0" class="graph" transform="scale(1 1) rotate(0) translate(4 112)">
<title>G</title>
<polygon fill="white" stroke="none" points="-4,4 -4,-112 309.63,-112 309.63,4 -4,4"/>
<!-- Sunlight -->
<g id="node1" class="node">
<title>Sunlight</title>
<ellipse fill="none" stroke="black" cx="40.58" cy="-90" rx="40.58" ry="18"/>
<text text-anchor="middle" x="40.58" y="-84.58" font-family="Times New Roman,serif" font-size="14.00">Sunlight</text>
</g>
<!-- Plant Growth -->
<g id="node2" class="node">
<title>Plant Growth</title>
<ellipse fill="none" stroke="black" cx="132.58" cy="-18" rx="60.05" ry="18"/>
<text text-anchor="middle" x="132.58" y="-12.57" font-family="Times New Roman,serif" font-size="14.00">Plant Growth</text>
</g>
<!-- Sunlight&#45;&gt;Plant Growth -->
<g id="edge1" class="edge">
<title>Sunlight&#45;&gt;Plant Growth</title>
<path fill="none" stroke="black" d="M60.1,-74.15C72.27,-64.89 88.19,-52.78 102.01,-42.26"/>
<polygon fill="black" stroke="black" points="104.13,-45.05 109.97,-36.21 99.89,-39.48 104.13,-45.05"/>
</g>
<!-- Water -->
<g id="node3" class="node">
<title>Water</title>
<ellipse fill="none" stroke="black" cx="132.58" cy="-90" rx="33.1" ry="18"/>
<text text-anchor="middle" x="132.58" y="-84.58" font-family="Times New Roman,serif" font-size="14.00">Water</text>
</g>
<!-- Water&#45;&gt;Plant Growth -->
<g id="edge2" class="edge">
<title>Water&#45;&gt;Plant Growth</title>
<path fill="none" stroke="black" d="M132.58,-71.7C132.58,-64.41 132.58,-55.73 132.58,-47.54"/>
<polygon fill="black" stroke="black" points="136.09,-47.62 132.58,-37.62 129.09,-47.62 136.09,-47.62"/>
</g>
<!-- Soil Nutrients -->
<g id="node4" class="node">
<title>Soil Nutrients</title>
<ellipse fill="none" stroke="black" cx="244.58" cy="-90" rx="61.04" ry="18"/>
<text text-anchor="middle" x="244.58" y="-84.58" font-family="Times New Roman,serif" font-size="14.00">Soil Nutrients</text>
</g>
<!-- Soil Nutrients&#45;&gt;Plant Growth -->
<g id="edge3" class="edge">
<title>Soil Nutrients&#45;&gt;Plant Growth</title>
<path fill="none" stroke="black" d="M219.45,-73.29C204.03,-63.65 184.07,-51.18 167.17,-40.62"/>
<polygon fill="black" stroke="black" points="169.25,-37.79 158.92,-35.46 165.54,-43.73 169.25,-37.79"/>
</g>
</g>
</svg>
