<?xml version="1.0" encoding="UTF-8" standalone="no"?>
<!DOCTYPE svg PUBLIC "-//W3C//DTD SVG 1.1//EN"
 "http://www.w3.org/Graphics/SVG/1.1/DTD/svg11.dtd">
<!-- Generated by graphviz version 10.0.1 (20240210.2158)
 -->
<!-- Title: G Pages: 1 -->
<svg width="352pt" height="116pt"
 viewBox="0.00 0.00 351.62 116.00" xmlns="http://www.w3.org/2000/svg" xmlns:xlink="http://www.w3.org/1999/xlink">
<g id="graph0" class="graph" transform="scale(1 1) rotate(0) translate(4 112)">
<title>G</title>
<polygon fill="white" stroke="none" points="-4,4 -4,-112 347.62,-112 347.62,4 -4,4"/>
<!-- Sunlight love -->
<g id="node1" class="node">
<title>Sunlight love</title>
<ellipse fill="none" stroke="black" cx="60.56" cy="-90" rx="60.56" ry="18"/>
<text text-anchor="middle" x="60.56" y="-84.95" font-family="Times,serif" font-size="14.00">Sunlight love</text>
</g>
<!-- PlantGrowth -->
<g id="node2" class="node">
<title>PlantGrowth</title>
<ellipse fill="none" stroke="black" cx="172.56" cy="-18" rx="58" ry="18"/>
<text text-anchor="middle" x="172.56" y="-12.95" font-family="Times,serif" font-size="14.00">PlantGrowth</text>
</g>
<!-- Sunlight love&#45;&gt;PlantGrowth -->
<g id="edge1" class="edge">
<title>Sunlight love&#45;&gt;PlantGrowth</title>
<path fill="none" stroke="black" d="M85.7,-73.29C101.12,-63.65 121.08,-51.18 137.98,-40.62"/>
<polygon fill="black" stroke="black" points="139.6,-43.73 146.23,-35.46 135.89,-37.79 139.6,-43.73"/>
</g>
<!-- Water -->
<g id="node3" class="node">
<title>Water</title>
<ellipse fill="none" stroke="black" cx="172.56" cy="-90" rx="33.44" ry="18"/>
<text text-anchor="middle" x="172.56" y="-84.95" font-family="Times,serif" font-size="14.00">Water</text>
</g>
<!-- Water&#45;&gt;PlantGrowth -->
<g id="edge2" class="edge">
<title>Water&#45;&gt;PlantGrowth</title>
<path fill="none" stroke="black" d="M172.56,-71.7C172.56,-64.41 172.56,-55.73 172.56,-47.54"/>
<polygon fill="black" stroke="black" points="176.06,-47.62 172.56,-37.62 169.06,-47.62 176.06,-47.62"/>
</g>
<!-- SoilNutrients -->
<g id="node4" class="node">
<title>SoilNutrients</title>
<ellipse fill="none" stroke="black" cx="283.56" cy="-90" rx="60.05" ry="18"/>
<text text-anchor="middle" x="283.56" y="-84.95" font-family="Times,serif" font-size="14.00">SoilNutrients</text>
</g>
<!-- SoilNutrients&#45;&gt;PlantGrowth -->
<g id="edge3" class="edge">
<title>SoilNutrients&#45;&gt;PlantGrowth</title>
<path fill="none" stroke="black" d="M258.65,-73.29C243.37,-63.65 223.59,-51.18 206.84,-40.62"/>
<polygon fill="black" stroke="black" points="209,-37.84 198.67,-35.46 205.26,-43.76 209,-37.84"/>
</g>
</g>
</svg>
