<?xml version="1.0" encoding="UTF-8" standalone="no"?>
<!DOCTYPE svg PUBLIC "-//W3C//DTD SVG 1.1//EN"
 "http://www.w3.org/Graphics/SVG/1.1/DTD/svg11.dtd">
<!-- Generated by graphviz version 10.0.1 (20240210.2158)
 -->
<!-- Title: G Pages: 1 -->
<svg width="315pt" height="116pt"
 viewBox="0.00 0.00 315.19 116.00" xmlns="http://www.w3.org/2000/svg" xmlns:xlink="http://www.w3.org/1999/xlink">
<g id="graph0" class="graph" transform="scale(1 1) rotate(0) translate(4 112)">
<title>G</title>
<polygon fill="white" stroke="none" points="-4,4 -4,-112 311.19,-112 311.19,4 -4,4"/>
<!-- Sunlight -->
<g id="node1" class="node">
<title>Sunlight</title>
<ellipse fill="none" stroke="black" cx="42.14" cy="-90" rx="42.14" ry="18"/>
<text text-anchor="middle" x="42.14" y="-84.95" font-family="Times,serif" font-size="14.00">Sunlight</text>
</g>
<!-- PlantGrowth -->
<g id="node2" class="node">
<title>PlantGrowth</title>
<ellipse fill="none" stroke="black" cx="136.14" cy="-18" rx="58" ry="18"/>
<text text-anchor="middle" x="136.14" y="-12.95" font-family="Times,serif" font-size="14.00">PlantGrowth</text>
</g>
<!-- Sunlight&#45;&gt;PlantGrowth -->
<g id="edge1" class="edge">
<title>Sunlight&#45;&gt;PlantGrowth</title>
<path fill="none" stroke="black" d="M62.54,-73.81C75.11,-64.44 91.49,-52.25 105.59,-41.75"/>
<polygon fill="black" stroke="black" points="107.33,-44.82 113.26,-36.04 103.15,-39.2 107.33,-44.82"/>
</g>
<!-- Water -->
<g id="node3" class="node">
<title>Water</title>
<ellipse fill="none" stroke="black" cx="136.14" cy="-90" rx="33.44" ry="18"/>
<text text-anchor="middle" x="136.14" y="-84.95" font-family="Times,serif" font-size="14.00">Water</text>
</g>
<!-- Water&#45;&gt;PlantGrowth -->
<g id="edge2" class="edge">
<title>Water&#45;&gt;PlantGrowth</title>
<path fill="none" stroke="black" d="M136.14,-71.7C136.14,-64.41 136.14,-55.73 136.14,-47.54"/>
<polygon fill="black" stroke="black" points="139.64,-47.62 136.14,-37.62 132.64,-47.62 139.64,-47.62"/>
</g>
<!-- SoilNutrients -->
<g id="node4" class="node">
<title>SoilNutrients</title>
<ellipse fill="none" stroke="black" cx="247.14" cy="-90" rx="60.05" ry="18"/>
<text text-anchor="middle" x="247.14" y="-84.95" font-family="Times,serif" font-size="14.00">SoilNutrients</text>
</g>
<!-- SoilNutrients&#45;&gt;PlantGrowth -->
<g id="edge3" class="edge">
<title>SoilNutrients&#45;&gt;PlantGrowth</title>
<path fill="none" stroke="black" d="M222.23,-73.29C206.95,-63.65 187.17,-51.18 170.42,-40.62"/>
<polygon fill="black" stroke="black" points="172.57,-37.84 162.25,-35.46 168.84,-43.76 172.57,-37.84"/>
</g>
</g>
</svg>
