<?xml version="1.0" encoding="UTF-8" standalone="no"?>
<!DOCTYPE svg PUBLIC "-//W3C//DTD SVG 1.1//EN"
 "http://www.w3.org/Graphics/SVG/1.1/DTD/svg11.dtd">
<!-- Generated by graphviz version 10.0.1 (20240210.2158)
 -->
<!-- Title: G Pages: 1 -->
<svg width="357pt" height="116pt"
 viewBox="0.00 0.00 357.18 116.00" xmlns="http://www.w3.org/2000/svg" xmlns:xlink="http://www.w3.org/1999/xlink">
<g id="graph0" class="graph" transform="scale(1 1) rotate(0) translate(4 112)">
<title>G</title>
<polygon fill="white" stroke="none" points="-4,4 -4,-112 353.18,-112 353.18,4 -4,4"/>
<!-- Sunlight love -->
<g id="node1" class="node">
<title>Sunlight love</title>
<ellipse fill="none" stroke="black" cx="60.56" cy="-90" rx="60.56" ry="18"/>
<text text-anchor="middle" x="60.56" y="-84.95" font-family="Times,serif" font-size="14.00">Sunlight love</text>
</g>
<!-- Plant Growth -->
<g id="node2" class="node">
<title>Plant Growth</title>
<ellipse fill="none" stroke="black" cx="172.56" cy="-18" rx="60.56" ry="18"/>
<text text-anchor="middle" x="172.56" y="-12.95" font-family="Times,serif" font-size="14.00">Plant Growth</text>
</g>
<!-- Sunlight love&#45;&gt;Plant Growth -->
<g id="edge1" class="edge">
<title>Sunlight love&#45;&gt;Plant Growth</title>
<path fill="none" stroke="black" d="M85.7,-73.29C101.12,-63.65 121.08,-51.18 137.98,-40.62"/>
<polygon fill="black" stroke="black" points="139.6,-43.73 146.23,-35.46 135.89,-37.79 139.6,-43.73"/>
</g>
<!-- Water -->
<g id="node3" class="node">
<title>Water</title>
<ellipse fill="none" stroke="black" cx="172.56" cy="-90" rx="33.44" ry="18"/>
<text text-anchor="middle" x="172.56" y="-84.95" font-family="Times,serif" font-size="14.00">Water</text>
</g>
<!-- Water&#45;&gt;Plant Growth -->
<g id="edge2" class="edge">
<title>Water&#45;&gt;Plant Growth</title>
<path fill="none" stroke="black" d="M172.56,-71.7C172.56,-64.41 172.56,-55.73 172.56,-47.54"/>
<polygon fill="black" stroke="black" points="176.06,-47.62 172.56,-37.62 169.06,-47.62 176.06,-47.62"/>
</g>
<!-- Soil Nutrients -->
<g id="node4" class="node">
<title>Soil Nutrients</title>
<ellipse fill="none" stroke="black" cx="286.56" cy="-90" rx="62.61" ry="18"/>
<text text-anchor="middle" x="286.56" y="-84.95" font-family="Times,serif" font-size="14.00">Soil Nutrients</text>
</g>
<!-- Soil Nutrients&#45;&gt;Plant Growth -->
<g id="edge3" class="edge">
<title>Soil Nutrients&#45;&gt;Plant Growth</title>
<path fill="none" stroke="black" d="M260.98,-73.29C245.29,-63.65 224.97,-51.18 207.77,-40.62"/>
<polygon fill="black" stroke="black" points="209.71,-37.7 199.35,-35.45 206.04,-43.66 209.71,-37.7"/>
</g>
</g>
</svg>
