<?xml version="1.0" encoding="UTF-8" standalone="no"?>
<!DOCTYPE svg PUBLIC "-//W3C//DTD SVG 1.1//EN"
 "http://www.w3.org/Graphics/SVG/1.1/DTD/svg11.dtd">
<!-- Generated by graphviz version 10.0.1 (20240210.2158)
 -->
<!-- Title: G Pages: 1 -->
<svg width="336pt" height="116pt"
 viewBox="0.00 0.00 336.20 116.00" xmlns="http://www.w3.org/2000/svg" xmlns:xlink="http://www.w3.org/1999/xlink">
<g id="graph0" class="graph" transform="scale(1 1) rotate(0) translate(4 112)">
<title>G</title>
<polygon fill="white" stroke="none" points="-4,4 -4,-112 332.2,-112 332.2,4 -4,4"/>
<!-- Heat -->
<g id="node1" class="node">
<title>Heat</title>
<ellipse fill="none" stroke="black" cx="28.32" cy="-90" rx="28.32" ry="18"/>
<text text-anchor="middle" x="28.32" y="-84.95" font-family="Times,serif" font-size="14.00">Heat</text>
</g>
<!-- Melting Glass -->
<g id="node2" class="node">
<title>Melting Glass</title>
<ellipse fill="none" stroke="black" cx="154.32" cy="-18" rx="63.63" ry="18"/>
<text text-anchor="middle" x="154.32" y="-12.95" font-family="Times,serif" font-size="14.00">Melting Glass</text>
</g>
<!-- Heat&#45;&gt;Melting Glass -->
<g id="edge1" class="edge">
<title>Heat&#45;&gt;Melting Glass</title>
<path fill="none" stroke="black" d="M49.13,-77.44C67.35,-67.32 94.29,-52.35 116.34,-40.1"/>
<polygon fill="black" stroke="black" points="118.04,-43.16 125.08,-35.25 114.64,-37.04 118.04,-43.16"/>
</g>
<!-- Silica -->
<g id="node3" class="node">
<title>Silica</title>
<ellipse fill="none" stroke="black" cx="106.32" cy="-90" rx="31.9" ry="18"/>
<text text-anchor="middle" x="106.32" y="-84.95" font-family="Times,serif" font-size="14.00">Silica</text>
</g>
<!-- Silica&#45;&gt;Melting Glass -->
<g id="edge2" class="edge">
<title>Silica&#45;&gt;Melting Glass</title>
<path fill="none" stroke="black" d="M117.45,-72.76C122.98,-64.7 129.81,-54.74 136.08,-45.6"/>
<polygon fill="black" stroke="black" points="138.95,-47.6 141.72,-37.37 133.18,-43.64 138.95,-47.6"/>
</g>
<!-- Soda Ash -->
<g id="node4" class="node">
<title>Soda Ash</title>
<ellipse fill="none" stroke="black" cx="202.32" cy="-90" rx="46.23" ry="18"/>
<text text-anchor="middle" x="202.32" y="-84.95" font-family="Times,serif" font-size="14.00">Soda Ash</text>
</g>
<!-- Soda Ash&#45;&gt;Melting Glass -->
<g id="edge3" class="edge">
<title>Soda Ash&#45;&gt;Melting Glass</title>
<path fill="none" stroke="black" d="M190.94,-72.41C185.41,-64.34 178.62,-54.43 172.39,-45.35"/>
<polygon fill="black" stroke="black" points="175.34,-43.47 166.8,-37.2 169.57,-47.43 175.34,-43.47"/>
</g>
<!-- Lime -->
<g id="node5" class="node">
<title>Lime</title>
<ellipse fill="none" stroke="black" cx="297.32" cy="-90" rx="30.88" ry="18"/>
<text text-anchor="middle" x="297.32" y="-84.95" font-family="Times,serif" font-size="14.00">Lime</text>
</g>
<!-- Lime&#45;&gt;Melting Glass -->
<g id="edge4" class="edge">
<title>Lime&#45;&gt;Melting Glass</title>
<path fill="none" stroke="black" d="M274.34,-77.75C253.11,-67.36 221.07,-51.67 195.43,-39.12"/>
<polygon fill="black" stroke="black" points="197.12,-36.05 186.6,-34.8 194.04,-42.34 197.12,-36.05"/>
</g>
</g>
</svg>
