<?xml version="1.0" encoding="UTF-8" standalone="no"?>
<!DOCTYPE svg PUBLIC "-//W3C//DTD SVG 1.1//EN"
 "http://www.w3.org/Graphics/SVG/1.1/DTD/svg11.dtd">
<!-- Generated by graphviz version 10.0.1 (20240210.2158)
 -->
<!-- Title: G Pages: 1 -->
<svg width="321pt" height="116pt"
 viewBox="0.00 0.00 320.75 116.00" xmlns="http://www.w3.org/2000/svg" xmlns:xlink="http://www.w3.org/1999/xlink">
<g id="graph0" class="graph" transform="scale(1 1) rotate(0) translate(4 112)">
<title>G</title>
<polygon fill="white" stroke="none" points="-4,4 -4,-112 316.75,-112 316.75,4 -4,4"/>
<!-- Sunlight -->
<g id="node1" class="node">
<title>Sunlight</title>
<ellipse fill="none" stroke="black" cx="42.14" cy="-90" rx="42.14" ry="18"/>
<text text-anchor="middle" x="42.14" y="-84.95" font-family="Times,serif" font-size="14.00">Sunlight</text>
</g>
<!-- Plant Growth -->
<g id="node2" class="node">
<title>Plant Growth</title>
<ellipse fill="none" stroke="black" cx="136.14" cy="-18" rx="60.56" ry="18"/>
<text text-anchor="middle" x="136.14" y="-12.95" font-family="Times,serif" font-size="14.00">Plant Growth</text>
</g>
<!-- Sunlight&#45;&gt;Plant Growth -->
<g id="edge1" class="edge">
<title>Sunlight&#45;&gt;Plant Growth</title>
<path fill="none" stroke="black" d="M62.54,-73.81C75.11,-64.44 91.49,-52.25 105.59,-41.75"/>
<polygon fill="black" stroke="black" points="107.33,-44.82 113.26,-36.04 103.15,-39.2 107.33,-44.82"/>
</g>
<!-- Water -->
<g id="node3" class="node">
<title>Water</title>
<ellipse fill="none" stroke="black" cx="136.14" cy="-90" rx="33.44" ry="18"/>
<text text-anchor="middle" x="136.14" y="-84.95" font-family="Times,serif" font-size="14.00">Water</text>
</g>
<!-- Water&#45;&gt;Plant Growth -->
<g id="edge2" class="edge">
<title>Water&#45;&gt;Plant Growth</title>
<path fill="none" stroke="black" d="M136.14,-71.7C136.14,-64.41 136.14,-55.73 136.14,-47.54"/>
<polygon fill="black" stroke="black" points="139.64,-47.62 136.14,-37.62 132.64,-47.62 139.64,-47.62"/>
</g>
<!-- Soil Nutrients -->
<g id="node4" class="node">
<title>Soil Nutrients</title>
<ellipse fill="none" stroke="black" cx="250.14" cy="-90" rx="62.61" ry="18"/>
<text text-anchor="middle" x="250.14" y="-84.95" font-family="Times,serif" font-size="14.00">Soil Nutrients</text>
</g>
<!-- Soil Nutrients&#45;&gt;Plant Growth -->
<g id="edge3" class="edge">
<title>Soil Nutrients&#45;&gt;Plant Growth</title>
<path fill="none" stroke="black" d="M224.56,-73.29C208.86,-63.65 188.54,-51.18 171.35,-40.62"/>
<polygon fill="black" stroke="black" points="173.28,-37.7 162.93,-35.45 169.62,-43.66 173.28,-37.7"/>
</g>
</g>
</svg>
