<?xml version="1.0" encoding="UTF-8" standalone="no"?>
<!DOCTYPE svg PUBLIC "-//W3C//DTD SVG 1.1//EN"
 "http://www.w3.org/Graphics/SVG/1.1/DTD/svg11.dtd">
<!-- Generated by graphviz version 10.0.1 (20240210.2158)
 -->
<!-- Title: G Pages: 1 -->
<svg width="949pt" height="188pt"
 viewBox="0.00 0.00 949.40 188.00" xmlns="http://www.w3.org/2000/svg" xmlns:xlink="http://www.w3.org/1999/xlink">
<g id="graph0" class="graph" transform="scale(1 1) rotate(0) translate(4 184)">
<title>G</title>
<polygon fill="white" stroke="none" points="-4,4 -4,-184 945.4,-184 945.4,4 -4,4"/>
<!-- Sunlight -->
<g id="node1" class="node">
<title>Sunlight</title>
<ellipse fill="none" stroke="black" cx="518.29" cy="-162" rx="42.14" ry="18"/>
<text text-anchor="middle" x="518.29" y="-156.95" font-family="Times,serif" font-size="14.00">Sunlight</text>
</g>
<!-- Plant Growth -->
<g id="node2" class="node">
<title>Plant Growth</title>
<ellipse fill="none" stroke="black" cx="357.29" cy="-90" rx="60.56" ry="18"/>
<text text-anchor="middle" x="357.29" y="-84.95" font-family="Times,serif" font-size="14.00">Plant Growth</text>
</g>
<!-- Sunlight&#45;&gt;Plant Growth -->
<g id="edge1" class="edge">
<title>Sunlight&#45;&gt;Plant Growth</title>
<path fill="none" stroke="black" d="M489.5,-148.49C464.88,-137.78 429.07,-122.21 400.92,-109.97"/>
<polygon fill="black" stroke="black" points="402.5,-106.84 391.94,-106.06 399.71,-113.26 402.5,-106.84"/>
</g>
<!-- Photolysis -->
<g id="node3" class="node">
<title>Photolysis</title>
<ellipse fill="none" stroke="black" cx="229.29" cy="-90" rx="49.3" ry="18"/>
<text text-anchor="middle" x="229.29" y="-84.95" font-family="Times,serif" font-size="14.00">Photolysis</text>
</g>
<!-- Sunlight&#45;&gt;Photolysis -->
<g id="edge2" class="edge">
<title>Sunlight&#45;&gt;Photolysis</title>
<path fill="none" stroke="black" d="M480.91,-153.14C435.1,-143.34 355.17,-125.72 287.29,-108 283.99,-107.14 280.6,-106.22 277.19,-105.28"/>
<polygon fill="black" stroke="black" points="278.36,-101.97 267.78,-102.62 276.45,-108.71 278.36,-101.97"/>
</g>
<!-- Electron Excitation -->
<g id="node4" class="node">
<title>Electron Excitation</title>
<ellipse fill="none" stroke="black" cx="518.29" cy="-90" rx="82.57" ry="18"/>
<text text-anchor="middle" x="518.29" y="-84.95" font-family="Times,serif" font-size="14.00">Electron Excitation</text>
</g>
<!-- Sunlight&#45;&gt;Electron Excitation -->
<g id="edge3" class="edge">
<title>Sunlight&#45;&gt;Electron Excitation</title>
<path fill="none" stroke="black" d="M518.29,-143.7C518.29,-136.41 518.29,-127.73 518.29,-119.54"/>
<polygon fill="black" stroke="black" points="521.79,-119.62 518.29,-109.62 514.79,-119.62 521.79,-119.62"/>
</g>
<!-- ATP Formation -->
<g id="node5" class="node">
<title>ATP Formation</title>
<ellipse fill="none" stroke="black" cx="687.29" cy="-90" rx="68.24" ry="18"/>
<text text-anchor="middle" x="687.29" y="-84.95" font-family="Times,serif" font-size="14.00">ATP Formation</text>
</g>
<!-- Sunlight&#45;&gt;ATP Formation -->
<g id="edge4" class="edge">
<title>Sunlight&#45;&gt;ATP Formation</title>
<path fill="none" stroke="black" d="M547.73,-148.81C573.5,-138.13 611.38,-122.44 641.17,-110.1"/>
<polygon fill="black" stroke="black" points="642.45,-113.36 650.35,-106.3 639.77,-106.89 642.45,-113.36"/>
</g>
<!-- NADPH Formation -->
<g id="node6" class="node">
<title>NADPH Formation</title>
<ellipse fill="none" stroke="black" cx="857.29" cy="-90" rx="84.11" ry="18"/>
<text text-anchor="middle" x="857.29" y="-84.95" font-family="Times,serif" font-size="14.00">NADPH Formation</text>
</g>
<!-- Sunlight&#45;&gt;NADPH Formation -->
<g id="edge5" class="edge">
<title>Sunlight&#45;&gt;NADPH Formation</title>
<path fill="none" stroke="black" d="M555.54,-153.31C611.13,-141.83 716.78,-120.01 787.14,-105.49"/>
<polygon fill="black" stroke="black" points="787.55,-108.98 796.63,-103.53 786.13,-102.12 787.55,-108.98"/>
</g>
<!-- Electron Supply -->
<g id="node8" class="node">
<title>Electron Supply</title>
<ellipse fill="none" stroke="black" cx="229.29" cy="-18" rx="70.8" ry="18"/>
<text text-anchor="middle" x="229.29" y="-12.95" font-family="Times,serif" font-size="14.00">Electron Supply</text>
</g>
<!-- Photolysis&#45;&gt;Electron Supply -->
<g id="edge11" class="edge">
<title>Photolysis&#45;&gt;Electron Supply</title>
<path fill="none" stroke="black" d="M229.29,-71.7C229.29,-64.41 229.29,-55.73 229.29,-47.54"/>
<polygon fill="black" stroke="black" points="232.79,-47.62 229.29,-37.62 225.79,-47.62 232.79,-47.62"/>
</g>
<!-- Proton Gradient -->
<g id="node9" class="node">
<title>Proton Gradient</title>
<ellipse fill="none" stroke="black" cx="70.29" cy="-18" rx="70.29" ry="18"/>
<text text-anchor="middle" x="70.29" y="-12.95" font-family="Times,serif" font-size="14.00">Proton Gradient</text>
</g>
<!-- Photolysis&#45;&gt;Proton Gradient -->
<g id="edge12" class="edge">
<title>Photolysis&#45;&gt;Proton Gradient</title>
<path fill="none" stroke="black" d="M198.63,-75.5C174.89,-65.05 141.66,-50.42 114.96,-38.67"/>
<polygon fill="black" stroke="black" points="116.66,-35.59 106.1,-34.77 113.84,-42 116.66,-35.59"/>
</g>
<!-- Oxygen -->
<g id="node10" class="node">
<title>Oxygen</title>
<ellipse fill="none" stroke="black" cx="358.29" cy="-18" rx="40.09" ry="18"/>
<text text-anchor="middle" x="358.29" y="-12.95" font-family="Times,serif" font-size="14.00">Oxygen</text>
</g>
<!-- Photolysis&#45;&gt;Oxygen -->
<g id="edge10" class="edge">
<title>Photolysis&#45;&gt;Oxygen</title>
<path fill="none" stroke="black" d="M256.02,-74.5C275.55,-63.9 302.22,-49.42 323.43,-37.92"/>
<polygon fill="black" stroke="black" points="324.89,-41.1 332.01,-33.26 321.56,-34.95 324.89,-41.1"/>
</g>
<!-- Water -->
<g id="node7" class="node">
<title>Water</title>
<ellipse fill="none" stroke="black" cx="191.29" cy="-162" rx="33.44" ry="18"/>
<text text-anchor="middle" x="191.29" y="-156.95" font-family="Times,serif" font-size="14.00">Water</text>
</g>
<!-- Water&#45;&gt;Plant Growth -->
<g id="edge6" class="edge">
<title>Water&#45;&gt;Plant Growth</title>
<path fill="none" stroke="black" d="M216.86,-150.22C242.41,-139.44 282.19,-122.67 312.9,-109.72"/>
<polygon fill="black" stroke="black" points="314.09,-113.01 321.95,-105.9 311.37,-106.56 314.09,-113.01"/>
</g>
<!-- Water&#45;&gt;Photolysis -->
<g id="edge7" class="edge">
<title>Water&#45;&gt;Photolysis</title>
<path fill="none" stroke="black" d="M200.29,-144.41C204.58,-136.51 209.83,-126.85 214.67,-117.94"/>
<polygon fill="black" stroke="black" points="217.67,-119.74 219.36,-109.29 211.51,-116.41 217.67,-119.74"/>
</g>
<!-- Water&#45;&gt;Electron Supply -->
<g id="edge8" class="edge">
<title>Water&#45;&gt;Electron Supply</title>
<path fill="none" stroke="black" d="M181.51,-144.32C172.1,-125.97 160.75,-95.91 171.29,-72 176.39,-60.44 185.39,-50.3 194.8,-42.08"/>
<polygon fill="black" stroke="black" points="196.71,-45.03 202.29,-36.02 192.31,-39.59 196.71,-45.03"/>
</g>
<!-- Water&#45;&gt;Proton Gradient -->
<g id="edge9" class="edge">
<title>Water&#45;&gt;Proton Gradient</title>
<path fill="none" stroke="black" d="M177.88,-145.26C157.02,-120.79 116.63,-73.38 91.71,-44.14"/>
<polygon fill="black" stroke="black" points="94.64,-42.18 85.49,-36.84 89.31,-46.72 94.64,-42.18"/>
</g>
</g>
</svg>
