<?xml version="1.0" encoding="UTF-8" standalone="no"?>
<!DOCTYPE svg PUBLIC "-//W3C//DTD SVG 1.1//EN"
 "http://www.w3.org/Graphics/SVG/1.1/DTD/svg11.dtd">
<!-- Generated by graphviz version 10.0.1 (20240210.2158)
 -->
<!-- Title: G Pages: 1 -->
<svg width="280pt" height="116pt"
 viewBox="0.00 0.00 280.44 116.00" xmlns="http://www.w3.org/2000/svg" xmlns:xlink="http://www.w3.org/1999/xlink">
<g id="graph0" class="graph" transform="scale(1 1) rotate(0) translate(4 112)">
<title>G</title>
<polygon fill="white" stroke="none" points="-4,4 -4,-112 276.44,-112 276.44,4 -4,4"/>
<!-- Fuel -->
<g id="node1" class="node">
<title>Fuel</title>
<ellipse fill="none" stroke="black" cx="27.3" cy="-90" rx="27.3" ry="18"/>
<text text-anchor="middle" x="27.3" y="-84.95" font-family="Times,serif" font-size="14.00">Fuel</text>
</g>
<!-- Spark Generation -->
<g id="node2" class="node">
<title>Spark Generation</title>
<ellipse fill="none" stroke="black" cx="99.3" cy="-18" rx="75.92" ry="18"/>
<text text-anchor="middle" x="99.3" y="-12.95" font-family="Times,serif" font-size="14.00">Spark Generation</text>
</g>
<!-- Fuel&#45;&gt;Spark Generation -->
<g id="edge1" class="edge">
<title>Fuel&#45;&gt;Spark Generation</title>
<path fill="none" stroke="black" d="M42.21,-74.5C51.32,-65.65 63.19,-54.1 73.75,-43.84"/>
<polygon fill="black" stroke="black" points="76.05,-46.49 80.78,-37.01 71.17,-41.47 76.05,-46.49"/>
</g>
<!-- Air -->
<g id="node3" class="node">
<title>Air</title>
<ellipse fill="none" stroke="black" cx="99.3" cy="-90" rx="27" ry="18"/>
<text text-anchor="middle" x="99.3" y="-84.95" font-family="Times,serif" font-size="14.00">Air</text>
</g>
<!-- Air&#45;&gt;Spark Generation -->
<g id="edge2" class="edge">
<title>Air&#45;&gt;Spark Generation</title>
<path fill="none" stroke="black" d="M99.3,-71.7C99.3,-64.41 99.3,-55.73 99.3,-47.54"/>
<polygon fill="black" stroke="black" points="102.8,-47.62 99.3,-37.62 95.8,-47.62 102.8,-47.62"/>
</g>
<!-- Battery Power -->
<g id="node4" class="node">
<title>Battery Power</title>
<ellipse fill="none" stroke="black" cx="208.3" cy="-90" rx="64.15" ry="18"/>
<text text-anchor="middle" x="208.3" y="-84.95" font-family="Times,serif" font-size="14.00">Battery Power</text>
</g>
<!-- Battery Power&#45;&gt;Spark Generation -->
<g id="edge3" class="edge">
<title>Battery Power&#45;&gt;Spark Generation</title>
<path fill="none" stroke="black" d="M183.29,-72.94C168.72,-63.58 150.12,-51.64 134.12,-41.37"/>
<polygon fill="black" stroke="black" points="136.14,-38.5 125.84,-36.04 132.36,-44.39 136.14,-38.5"/>
</g>
</g>
</svg>
